<svg width="28" height="22" viewBox="0 0 28 22" fill="none" xmlns="http://www.w3.org/2000/svg">
<path d="M26.1758 0.384766H1.80078C1.28223 0.384766 0.863281 0.803711 0.863281 1.32227V20.0723C0.863281 20.5908 1.28223 21.0098 1.80078 21.0098H26.1758C26.6943 21.0098 27.1133 20.5908 27.1133 20.0723V1.32227C27.1133 0.803711 26.6943 0.384766 26.1758 0.384766ZM25.0039 3.63086V18.9004H2.97266V3.63086L2.16406 3.00098L3.31543 1.52148L4.56934 2.49707H23.4102L24.6641 1.52148L25.8154 3.00098L25.0039 3.63086ZM23.4102 2.49414L13.9883 9.81836L4.56641 2.49414L3.3125 1.51855L2.16113 2.99805L2.96973 3.62793L12.9775 11.4092C13.2653 11.6328 13.6194 11.7542 13.9839 11.7542C14.3483 11.7542 14.7024 11.6328 14.9902 11.4092L25.0039 3.63086L25.8125 3.00098L24.6611 1.52148L23.4102 2.49414Z" fill="#EF2779"/>
</svg>
