<svg width="33" height="33" viewBox="0 0 33 33" fill="none" xmlns="http://www.w3.org/2000/svg">
<path d="M31.0739 0.180176H1.61482C0.906356 0.180176 0.333984 0.752547 0.333984 1.46101V30.9201C0.333984 31.6286 0.906356 32.201 1.61482 32.201H31.0739C31.7824 32.201 32.3548 31.6286 32.3548 30.9201V1.46101C32.3548 0.752547 31.7824 0.180176 31.0739 0.180176ZM27.3755 9.52624H24.8179C22.8126 9.52624 22.4243 10.4789 22.4243 11.8798V14.9658H27.2114L26.587 19.7969H22.4243V32.201H17.4331V19.8009H13.2584V14.9658H17.4331V11.4035C17.4331 7.26877 19.9587 5.01531 23.6491 5.01531C25.4183 5.01531 26.9352 5.1474 27.3795 5.20744V9.52624H27.3755Z" fill="#EF2779"/>
</svg>
