<svg width="33" height="33" viewBox="0 0 33 33" fill="none" xmlns="http://www.w3.org/2000/svg">
<path d="M31.0603 0.180176H1.60114C0.892684 0.180176 0.320312 0.752547 0.320312 1.46101V30.9201C0.320312 31.6286 0.892684 32.201 1.60114 32.201H31.0603C31.7687 32.201 32.3411 31.6286 32.3411 30.9201V1.46101C32.3411 0.752547 31.7687 0.180176 31.0603 0.180176ZM9.81847 27.4659H5.06739V12.184H9.81847V27.4659ZM7.44494 10.0946C6.90029 10.0946 6.36787 9.9331 5.91501 9.63051C5.46216 9.32792 5.1092 8.89784 4.90077 8.39465C4.69234 7.89146 4.63781 7.33777 4.74406 6.80359C4.85032 6.2694 5.11259 5.77872 5.49771 5.3936C5.88284 5.00848 6.37352 4.7462 6.9077 4.63995C7.44188 4.53369 7.99557 4.58823 8.49876 4.79665C9.00195 5.00508 9.43204 5.35804 9.73463 5.8109C10.0372 6.26376 10.1987 6.79617 10.1987 7.34082C10.1947 8.86181 8.96192 10.0946 7.44494 10.0946ZM27.606 27.4659H22.8589V20.0331C22.8589 18.2599 22.8269 15.9824 20.3893 15.9824C17.9197 15.9824 17.5395 17.9117 17.5395 19.905V27.4659H12.7964V12.184H17.3514V14.2733H17.4154C18.0478 13.0725 19.5968 11.8037 21.9103 11.8037C26.7214 11.8037 27.606 14.9698 27.606 19.0844V27.4659Z" fill="#EF2779"/>
</svg>
