<?xml version="1.0" encoding="utf-8"?>
<!-- Generator: Adobe Illustrator 16.0.0, SVG Export Plug-In . SVG Version: 6.00 Build 0)  -->
<!DOCTYPE svg PUBLIC "-//W3C//DTD SVG 1.1//EN" "http://www.w3.org/Graphics/SVG/1.1/DTD/svg11.dtd">
<svg version="1.1" id="Capa_1" xmlns="http://www.w3.org/2000/svg" xmlns:xlink="http://www.w3.org/1999/xlink" x="0px" y="0px"
	 width="846px" height="1080px" viewBox="538.5 0 846 1080" enable-background="new 538.5 0 846 1080" xml:space="preserve">
<g>
	<g>
		<path fill="#EF2779" d="M1352.889,283.002c-38.502-124.394-138.518-225.232-261.016-263.169
			C961.427-20.564,825.434,1.365,718.767,79.997c-51.11,37.675-93.521,87.37-122.646,143.705
			c-30.101,58.225-46.01,123.776-46.01,189.569c0,89.75,28.391,175.04,82.104,246.651L961.543,1080l328.919-419.541l0.411-0.537
			C1371.254,552.748,1393.859,415.364,1352.889,283.002z M1240.43,621.684L961.543,977.445L682.654,621.684
			c-45.299-60.516-69.244-132.578-69.244-208.413c0-110.812,53.426-216.354,142.916-282.323
			c90.311-66.574,205.789-85.033,316.824-50.65c102.836,31.848,186.856,116.691,219.275,221.419
			C1327.29,414.362,1308.337,530.968,1240.43,621.684z"/>
	</g>
</g>
<g>
	<g>
		<path fill="#EF2779" d="M960.042,191.731c-122.156,0-221.539,99.383-221.539,221.539c0,122.156,99.383,221.54,221.539,221.54
			s221.539-99.384,221.539-221.54C1181.581,291.115,1082.198,191.731,960.042,191.731z M960.042,571.514
			c-87.254,0-158.243-70.986-158.243-158.243c0-87.254,70.987-158.243,158.243-158.243c87.257,0,158.243,70.987,158.243,158.243
			C1118.285,500.525,1047.297,571.514,960.042,571.514z"/>
	</g>
</g>
</svg>
