<svg width="35" height="28" viewBox="0 0 35 28" fill="none" xmlns="http://www.w3.org/2000/svg">
<path d="M34.0087 3.87572C32.7839 4.40407 31.4511 4.78431 30.0782 4.93241C31.5036 4.0856 32.571 2.74779 33.0801 1.16997C31.7426 1.96564 30.2773 2.52358 28.7493 2.81904C28.1107 2.1363 27.3383 1.5924 26.4803 1.22123C25.6222 0.85006 24.697 0.659573 23.7621 0.661638C19.9796 0.661638 16.9377 3.72763 16.9377 7.49007C16.9377 8.01841 17.0017 8.54675 17.1058 9.05508C11.4421 8.75889 6.39082 6.05314 3.03264 1.91045C2.42074 2.95559 2.10009 4.1456 2.10403 5.35668C2.10403 7.72622 3.30882 9.81558 5.14601 11.0444C4.06332 11.0017 3.00599 10.7041 2.06001 10.1758V10.2599C2.06001 13.578 4.40553 16.3278 7.53156 16.9602C6.94461 17.1127 6.34081 17.1907 5.73439 17.1924C5.2901 17.1924 4.86983 17.1483 4.44555 17.0883C5.31011 19.7941 7.82775 21.7593 10.8257 21.8234C8.48017 23.6606 5.54226 24.7413 2.3522 24.7413C1.77982 24.7413 1.25148 24.7213 0.703125 24.6572C3.72909 26.5985 7.31942 27.7192 11.1859 27.7192C23.7381 27.7192 30.6065 17.3204 30.6065 8.29459C30.6065 7.9984 30.6065 7.70221 30.5865 7.40601C31.9154 6.43338 33.0801 5.2286 34.0087 3.87572Z" fill="#EF2779"/>
</svg>
